####
#
# OBJ File Generated by Meshlab
#
####
# Object floor2.obj
#
# Vertices: 81
# Faces: 128
#
####
mtllib ./floor2.obj.mtl

vn 0.0000000 1.0000000 0.0000000
v -1.0000000 -1.0000000 -1.0000000
vn 0.0000000 1.0000000 0.0000000
v 1.0000000 -1.0000000 -1.0000000
vn 0.0000000 1.0000000 0.0000000
v 1.0000000 -1.0000000 1.0000000
vn 0.0000000 1.0000000 0.0000000
v -1.0000000 -1.0000000 1.0000000
vn 0.0000000 1.0000000 0.0000000
v 1.0000000 -1.0000000 0.0000000
vn 0.0000000 1.0000000 0.0000000
v 0.0000000 -1.0000000 -1.0000000
vn 0.0000000 1.0000000 0.0000000
v 0.0000000 -1.0000000 0.0000000
vn 0.0000000 1.0000000 0.0000000
v 0.0000000 -1.0000000 1.0000000
vn 0.0000000 1.0000000 0.0000000
v -1.0000000 -1.0000000 0.0000000
vn 0.0000000 1.0000000 0.0000000
v 0.5000000 -1.0000000 -0.5000000
vn 0.0000000 1.0000000 0.0000000
v 0.0000000 -1.0000000 -0.5000000
vn 0.0000000 1.0000000 0.0000000
v 0.5000000 -1.0000000 0.0000000
vn 0.0000000 1.0000000 0.0000000
v 0.0000000 -1.0000000 0.5000000
vn 0.0000000 1.0000000 0.0000000
v -0.5000000 -1.0000000 0.0000000
vn 0.0000000 1.0000000 0.0000000
v -0.5000000 -1.0000000 0.5000000
vn 0.0000000 1.0000000 0.0000000
v 1.0000000 -1.0000000 0.5000000
vn 0.0000000 1.0000000 0.0000000
v 0.5000000 -1.0000000 0.5000000
vn 0.0000000 1.0000000 0.0000000
v 1.0000000 -1.0000000 -0.5000000
vn 0.0000000 1.0000000 0.0000000
v 0.5000000 -1.0000000 -1.0000000
vn 0.0000000 1.0000000 0.0000000
v -0.5000000 -1.0000000 -1.0000000
vn 0.0000000 1.0000000 0.0000000
v -0.5000000 -1.0000000 -0.5000000
vn 0.0000000 1.0000000 0.0000000
v -0.5000000 -1.0000000 1.0000000
vn 0.0000000 1.0000000 0.0000000
v -1.0000000 -1.0000000 0.5000000
vn 0.0000000 1.0000000 0.0000000
v 0.5000000 -1.0000000 1.0000000
vn 0.0000000 1.0000000 0.0000000
v -1.0000000 -1.0000000 -0.5000000
vn 0.0000000 1.0000000 0.0000000
v 0.2500000 -1.0000000 -0.5000000
vn 0.0000000 1.0000000 0.0000000
v 0.2500000 -1.0000000 -0.2500000
vn 0.0000000 1.0000000 0.0000000
v 0.5000000 -1.0000000 -0.2500000
vn 0.0000000 1.0000000 0.0000000
v -0.2500000 -1.0000000 0.2500000
vn 0.0000000 1.0000000 0.0000000
v -0.5000000 -1.0000000 0.2500000
vn 0.0000000 1.0000000 0.0000000
v -0.2500000 -1.0000000 0.5000000
vn 0.0000000 1.0000000 0.0000000
v 0.7500000 -1.0000000 0.2500000
vn 0.0000000 1.0000000 0.0000000
v 0.5000000 -1.0000000 0.2500000
vn 0.0000000 1.0000000 0.0000000
v 0.7500000 -1.0000000 0.5000000
vn 0.0000000 1.0000000 0.0000000
v 0.7500000 -1.0000000 -0.7500000
vn 0.0000000 1.0000000 0.0000000
v 0.5000000 -1.0000000 -0.7500000
vn 0.0000000 1.0000000 0.0000000
v 0.7500000 -1.0000000 -0.5000000
vn 0.0000000 1.0000000 0.0000000
v -0.2500000 -1.0000000 -0.7500000
vn 0.0000000 1.0000000 0.0000000
v -0.5000000 -1.0000000 -0.7500000
vn 0.0000000 1.0000000 0.0000000
v -0.2500000 -1.0000000 -0.5000000
vn 0.0000000 1.0000000 0.0000000
v -0.5000000 -1.0000000 0.7500000
vn 0.0000000 1.0000000 0.0000000
v -0.7500000 -1.0000000 0.5000000
vn 0.0000000 1.0000000 0.0000000
v -0.7500000 -1.0000000 0.7500000
vn 0.0000000 1.0000000 0.0000000
v 0.5000000 -1.0000000 0.7500000
vn 0.0000000 1.0000000 0.0000000
v 0.2500000 -1.0000000 0.5000000
vn 0.0000000 1.0000000 0.0000000
v 0.2500000 -1.0000000 0.7500000
vn 0.0000000 1.0000000 0.0000000
v -0.5000000 -1.0000000 -0.2500000
vn 0.0000000 1.0000000 0.0000000
v -0.7500000 -1.0000000 -0.5000000
vn 0.0000000 1.0000000 0.0000000
v -0.7500000 -1.0000000 -0.2500000
vn 0.0000000 1.0000000 0.0000000
v 0.7500000 -1.0000000 -0.2500000
vn 0.0000000 1.0000000 0.0000000
v 0.7500000 -1.0000000 0.0000000
vn 0.0000000 1.0000000 0.0000000
v 0.2500000 -1.0000000 -0.7500000
vn 0.0000000 1.0000000 0.0000000
v 0.0000000 -1.0000000 -0.7500000
vn 0.0000000 1.0000000 0.0000000
v 0.0000000 -1.0000000 -0.2500000
vn 0.0000000 1.0000000 0.0000000
v 0.2500000 -1.0000000 0.0000000
vn 0.0000000 1.0000000 0.0000000
v 0.0000000 -1.0000000 0.7500000
vn 0.0000000 1.0000000 0.0000000
v -0.2500000 -1.0000000 0.7500000
vn 0.0000000 1.0000000 0.0000000
v 0.0000000 -1.0000000 0.2500000
vn 0.0000000 1.0000000 0.0000000
v -0.2500000 -1.0000000 0.0000000
vn 0.0000000 1.0000000 0.0000000
v -0.7500000 -1.0000000 0.0000000
vn 0.0000000 1.0000000 0.0000000
v -0.7500000 -1.0000000 0.2500000
vn 0.0000000 1.0000000 0.0000000
v 1.0000000 -1.0000000 0.7500000
vn 0.0000000 1.0000000 0.0000000
v 0.7500000 -1.0000000 0.7500000
vn 0.0000000 1.0000000 0.0000000
v 1.0000000 -1.0000000 0.2500000
vn 0.0000000 1.0000000 0.0000000
v 0.2500000 -1.0000000 0.2500000
vn 0.0000000 1.0000000 0.0000000
v 1.0000000 -1.0000000 -0.2500000
vn 0.0000000 1.0000000 0.0000000
v 1.0000000 -1.0000000 -0.7500000
vn 0.0000000 1.0000000 0.0000000
v 0.7500000 -1.0000000 -1.0000000
vn 0.0000000 1.0000000 0.0000000
v 0.2500000 -1.0000000 -1.0000000
vn 0.0000000 1.0000000 0.0000000
v -0.2500000 -1.0000000 -0.2500000
vn 0.0000000 1.0000000 0.0000000
v -0.2500000 -1.0000000 -1.0000000
vn 0.0000000 1.0000000 0.0000000
v -0.7500000 -1.0000000 -1.0000000
vn 0.0000000 1.0000000 0.0000000
v -0.7500000 -1.0000000 -0.7500000
vn 0.0000000 1.0000000 0.0000000
v -0.7500000 -1.0000000 1.0000000
vn 0.0000000 1.0000000 0.0000000
v -1.0000000 -1.0000000 0.7500000
vn 0.0000000 1.0000000 0.0000000
v -0.2500000 -1.0000000 1.0000000
vn 0.0000000 1.0000000 0.0000000
v -1.0000000 -1.0000000 0.2500000
vn 0.0000000 1.0000000 0.0000000
v 0.2500000 -1.0000000 1.0000000
vn 0.0000000 1.0000000 0.0000000
v 0.7500000 -1.0000000 1.0000000
vn 0.0000000 1.0000000 0.0000000
v -1.0000000 -1.0000000 -0.2500000
vn 0.0000000 1.0000000 0.0000000
v -1.0000000 -1.0000000 -0.7500000
# 81 vertices, 0 vertices normals


usemtl material_0
vt 0.6250000 0.2500000
vt 0.6250000 0.3750000
vt 0.7500000 0.3750000
f 26/1/26 27/2/27 28/3/28
vt 0.3750000 0.6250000
vt 0.2500000 0.6250000
vt 0.3750000 0.7500000
f 29/4/29 30/5/30 31/6/31
vt 0.8750000 0.6250000
vt 0.7500000 0.6250000
vt 0.8750000 0.7500000
f 32/7/32 33/8/33 34/9/34
vt 0.8750000 0.1250000
vt 0.7500000 0.1250000
vt 0.8750000 0.2500000
f 35/10/35 36/11/36 37/12/37
vt 0.3750000 0.1250000
vt 0.2500000 0.1250000
vt 0.3750000 0.2500000
f 38/13/38 39/14/39 40/15/40
vt 0.2500000 0.8750000
vt 0.1250000 0.7500000
vt 0.1250000 0.8750000
f 41/16/41 42/17/42 43/18/43
vt 0.7500000 0.8750000
vt 0.6250000 0.7500000
vt 0.6250000 0.8750000
f 44/19/44 45/20/45 46/21/46
vt 0.2500000 0.3750000
vt 0.1250000 0.2500000
vt 0.1250000 0.3750000
f 47/22/47 48/23/48 49/24/49
vt 0.8750000 0.3750000
vt 0.8750000 0.5000000
f 50/25/50 28/3/28 51/26/51
vt 0.6250000 0.1250000
vt 0.5000000 0.1250000
f 52/27/52 53/28/53 26/1/26
vt 0.5000000 0.3750000
vt 0.6250000 0.5000000
f 27/2/27 54/29/54 55/30/55
vt 0.5000000 0.8750000
vt 0.3750000 0.8750000
f 56/31/56 31/6/31 57/32/57
vt 0.5000000 0.6250000
vt 0.3750000 0.5000000
f 58/33/58 59/34/59 29/4/29
vt 0.1250000 0.5000000
vt 0.1250000 0.6250000
f 30/5/30 60/35/60 61/36/61
vt 1.0000000 0.8750000
vt 0.8750000 0.8750000
f 62/37/62 34/9/34 63/38/63
vt 1.0000000 0.6250000
f 64/39/64 51/26/51 32/7/32
vt 0.6250000 0.6250000
f 33/8/33 55/30/55 65/40/65
vt 1.0000000 0.3750000
f 66/41/66 37/12/37 50/25/50
vt 1.0000000 0.1250000
vt 0.8750000 0.0000000
f 67/42/67 68/43/68 35/10/35
vt 0.6250000 0.0000000
f 36/11/36 69/44/69 52/27/52
vt 0.3750000 0.3750000
f 54/29/54 40/15/40 70/45/70
vt 0.3750000 0.0000000
f 53/28/53 71/46/71 38/13/38
vt 0.1250000 0.0000000
vt 0.1250000 0.1250000
f 39/14/39 72/47/72 73/48/73
vt 0.1250000 1.0000000
vt 0.0000000 0.8750000
f 74/49/74 43/18/43 75/50/75
vt 0.3750000 1.0000000
f 76/51/76 57/32/57 41/16/41
vt 0.0000000 0.6250000
f 42/17/42 61/36/61 77/52/77
vt 0.6250000 1.0000000
f 78/53/78 46/21/46 56/31/56
vt 0.8750000 1.0000000
f 79/54/79 63/38/63 44/19/44
f 45/20/45 65/40/65 58/33/58
vt 0.0000000 0.3750000
f 60/35/60 49/24/49 80/55/80
f 59/34/59 70/45/70 47/22/47
vt 0.0000000 0.1250000
f 48/23/48 73/48/73 81/56/81
vt 0.7500000 0.2500000
f 10/57/10 26/1/26 28/3/28
vt 0.5000000 0.2500000
f 26/1/26 11/58/11 27/2/27
vt 0.7500000 0.5000000
f 28/3/28 27/2/27 12/59/12
vt 0.5000000 0.7500000
f 13/60/13 29/4/29 31/6/31
vt 0.2500000 0.5000000
f 29/4/29 14/61/14 30/5/30
vt 0.2500000 0.7500000
f 31/6/31 30/5/30 15/62/15
vt 1.0000000 0.7500000
f 16/63/16 32/7/32 34/9/34
f 32/7/32 12/59/12 33/8/33
vt 0.7500000 0.7500000
f 34/9/34 33/8/33 17/64/17
vt 1.0000000 0.2500000
f 18/65/18 35/10/35 37/12/37
vt 0.7500000 0.0000000
f 35/10/35 19/66/19 36/11/36
f 37/12/37 36/11/36 10/57/10
f 11/58/11 38/13/38 40/15/40
vt 0.2500000 0.0000000
f 38/13/38 20/67/20 39/14/39
vt 0.2500000 0.2500000
f 40/15/40 39/14/39 21/68/21
vt 0.2500000 1.0000000
f 22/69/22 41/16/41 43/18/43
f 41/16/41 15/62/15 42/17/42
vt 0.0000000 0.7500000
f 43/18/43 42/17/42 23/70/23
vt 0.7500000 1.0000000
f 24/71/24 44/19/44 46/21/46
f 44/19/44 17/64/17 45/20/45
f 46/21/46 45/20/45 13/60/13
f 14/61/14 47/22/47 49/24/49
f 47/22/47 21/68/21 48/23/48
vt 0.0000000 0.2500000
f 49/24/49 48/23/48 25/72/25
vt 1.0000000 0.5000000
f 5/73/5 50/25/50 51/26/51
f 50/25/50 10/57/10 28/3/28
f 51/26/51 28/3/28 12/59/12
f 10/57/10 52/27/52 26/1/26
vt 0.5000000 0.0000000
f 52/27/52 6/74/6 53/28/53
f 26/1/26 53/28/53 11/58/11
f 12/59/12 27/2/27 55/30/55
f 27/2/27 11/58/11 54/29/54
vt 0.5000000 0.5000000
f 55/30/55 54/29/54 7/75/7
vt 0.5000000 1.0000000
f 8/76/8 56/31/56 57/32/57
f 56/31/56 13/60/13 31/6/31
f 57/32/57 31/6/31 15/62/15
f 13/60/13 58/33/58 29/4/29
f 58/33/58 7/75/7 59/34/59
f 29/4/29 59/34/59 14/61/14
f 15/62/15 30/5/30 61/36/61
f 30/5/30 14/61/14 60/35/60
vt 0.0000000 0.5000000
f 61/36/61 60/35/60 9/77/9
vt 1.0000000 1.0000000
f 3/78/3 62/37/62 63/38/63
f 62/37/62 16/63/16 34/9/34
f 63/38/63 34/9/34 17/64/17
f 16/63/16 64/39/64 32/7/32
f 64/39/64 5/73/5 51/26/51
f 32/7/32 51/26/51 12/59/12
f 17/64/17 33/8/33 65/40/65
f 33/8/33 12/59/12 55/30/55
f 65/40/65 55/30/55 7/75/7
f 5/73/5 66/41/66 50/25/50
f 66/41/66 18/65/18 37/12/37
f 50/25/50 37/12/37 10/57/10
f 18/65/18 67/42/67 35/10/35
vt 1.0000000 0.0000000
f 67/42/67 2/79/2 68/43/68
f 35/10/35 68/43/68 19/66/19
f 10/57/10 36/11/36 52/27/52
f 36/11/36 19/66/19 69/44/69
f 52/27/52 69/44/69 6/74/6
f 7/75/7 54/29/54 70/45/70
f 54/29/54 11/58/11 40/15/40
f 70/45/70 40/15/40 21/68/21
f 11/58/11 53/28/53 38/13/38
f 53/28/53 6/74/6 71/46/71
f 38/13/38 71/46/71 20/67/20
f 21/68/21 39/14/39 73/48/73
f 39/14/39 20/67/20 72/47/72
vt 0.0000000 0.0000000
f 73/48/73 72/47/72 1/80/1
vt 0.0000000 1.0000000
f 4/81/4 74/49/74 75/50/75
f 74/49/74 22/69/22 43/18/43
f 75/50/75 43/18/43 23/70/23
f 22/69/22 76/51/76 41/16/41
f 76/51/76 8/76/8 57/32/57
f 41/16/41 57/32/57 15/62/15
f 23/70/23 42/17/42 77/52/77
f 42/17/42 15/62/15 61/36/61
f 77/52/77 61/36/61 9/77/9
f 8/76/8 78/53/78 56/31/56
f 78/53/78 24/71/24 46/21/46
f 56/31/56 46/21/46 13/60/13
f 24/71/24 79/54/79 44/19/44
f 79/54/79 3/78/3 63/38/63
f 44/19/44 63/38/63 17/64/17
f 13/60/13 45/20/45 58/33/58
f 45/20/45 17/64/17 65/40/65
f 58/33/58 65/40/65 7/75/7
f 9/77/9 60/35/60 80/55/80
f 60/35/60 14/61/14 49/24/49
f 80/55/80 49/24/49 25/72/25
f 14/61/14 59/34/59 47/22/47
f 59/34/59 7/75/7 70/45/70
f 47/22/47 70/45/70 21/68/21
f 25/72/25 48/23/48 81/56/81
f 48/23/48 21/68/21 73/48/73
f 81/56/81 73/48/73 1/80/1
# 128 faces, 81 coords texture

# End of File
